{"asset":{"version":"2.0","generator":"Blockbench 5.0.4 glTF exporter"},"scenes":[{"nodes":[3],"name":"blockbench_export"}],"scene":0,"nodes":[{"translation":[-1.483410972405808e-17,-0.25,1.1386902816668272e-17],"name":"tube","mesh":0},{"translation":[1.9326598725946738e-17,0,9.25185853854297e-18],"name":"cylinder","mesh":1},{"translation":[0,-0.25,1.1386902816668272e-17],"name":"cuboid","mesh":2},{"rotation":[0,0,0.7071067811865475,0.7071067811865476],"translation":[1.483410972405808e-17,0.5,-1.1386902816668272e-17],"name":"coin","children":[0,1,2]}],"bufferViews":[{"buffer":0,"byteOffset":0,"byteLength":2304,"target":34962,"byteStride":12},{"buffer":0,"byteOffset":2304,"byteLength":2304,"target":34962,"byteStride":12},{"buffer":0,"byteOffset":4608,"byteLength":1536,"target":34962,"byteStride":8},{"buffer":0,"byteOffset":6144,"byteLength":576,"target":34963},{"buffer":0,"byteOffset":6720,"byteLength":1440,"target":34962,"byteStride":12},{"buffer":0,"byteOffset":8160,"byteLength":1440,"target":34962,"byteStride":12},{"buffer":0,"byteOffset":9600,"byteLength":960,"target":34962,"byteStride":8},{"buffer":0,"byteOffset":10560,"byteLength":288,"target":34963},{"buffer":0,"byteOffset":10848,"byteLength":5616,"target":34962,"byteStride":12},{"buffer":0,"byteOffset":16464,"byteLength":5616,"target":34962,"byteStride":12},{"buffer":0,"byteOffset":22080,"byteLength":3744,"target":34962,"byteStride":8},{"buffer":0,"byteOffset":25824,"byteLength":1344,"target":34963},{"buffer":0,"byteOffset":27168,"byteLength":20},{"buffer":0,"byteOffset":27188,"byteLength":80},{"buffer":0,"byteOffset":27268,"byteLength":12},{"buffer":0,"byteOffset":27280,"byteLength":36}],"buffers":[{"byteLength":27316,"uri":"data:application/octet-stream;base64,"}],"accessors":[{"bufferView":0,"componentType":5126,"count":192,"max":[0.421875,0.28125,0.421875],"min":[-0.421875,0.21875,-0.421875],"type":"VEC3"},{"bufferView":1,"componentType":5126,"count":192,"max":[1,1,1],"min":[-1,-1,-1],"type":"VEC3"},{"bufferView":2,"componentType":5126,"count":192,"max":[0.5769703388214111,0.421875],"min":[0.003735937410965562,0],"type":"VEC2"},{"bufferView":3,"componentType":5123,"count":288,"max":[191],"min":[0],"type":"SCALAR"},{"bufferView":4,"componentType":5126,"count":120,"max":[0.34375,0.015625,0.34375],"min":[-0.34375,-0.015625,-0.34375],"type":"VEC3"},{"bufferView":5,"componentType":5126,"count":120,"max":[1,1,1],"min":[-1,-1,-1],"type":"VEC3"},{"bufferView":6,"componentType":5126,"count":120,"max":[0.5612671971321106,0.515625],"min":[0,0],"type":"VEC2"},{"bufferView":7,"componentType":5123,"count":144,"max":[119],"min":[0],"type":"SCALAR"},{"bufferView":8,"componentType":5126,"count":468,"max":[0.265625,0.28125,0.125],"min":[-0.265625,0.21875,-0.125],"type":"VEC3"},{"bufferView":9,"componentType":5126,"count":468,"max":[1,1,1],"min":[-1,-1,-1],"type":"VEC3"},{"bufferView":10,"componentType":5126,"count":468,"max":[0.52734375,0.484375],"min":[0,0],"type":"VEC2"},{"bufferView":11,"componentType":5123,"count":672,"max":[467],"min":[0],"type":"SCALAR"},{"bufferView":12,"componentType":5126,"count":5,"max":[2],"min":[0],"type":"SCALAR"},{"bufferView":13,"componentType":5126,"count":5,"max":[0.7071067690849304,0.7071067690849304,0.7071067690849304,0.7071067690849304],"min":[0,0,-0.7071067690849304,-0.7071067690849304],"type":"VEC4"},{"bufferView":14,"componentType":5126,"count":3,"max":[2],"min":[0],"type":"SCALAR"},{"bufferView":15,"componentType":5126,"count":3,"max":[1.4834109511960488e-17,1.0625,-1.1386902965136587e-17],"min":[1.4834109511960488e-17,0.5,-1.1386902965136587e-17],"type":"VEC3"}],"materials":[{"pbrMetallicRoughness":{"metallicFactor":0,"roughnessFactor":1,"baseColorTexture":{"index":0}},"alphaMode":"MASK","alphaCutoff":0.05,"doubleSided":true}],"textures":[{"sampler":0,"source":0,"name":"texture"}],"samplers":[{"magFilter":9728,"minFilter":9728,"wrapS":33071,"wrapT":33071}],"images":[{"mimeType":"image/png","uri":"data:image/png;base64,"}],"meshes":[{"primitives":[{"mode":4,"attributes":{"POSITION":0,"NORMAL":1,"TEXCOORD_0":2},"indices":3,"material":0}]},{"primitives":[{"mode":4,"attributes":{"POSITION":4,"NORMAL":5,"TEXCOORD_0":6},"indices":7,"material":0}]},{"primitives":[{"mode":4,"attributes":{"POSITION":8,"NORMAL":9,"TEXCOORD_0":10},"indices":11,"material":0}]}],"animations":[{"name":"idle","samplers":[{"input":12,"output":13,"interpolation":"LINEAR"},{"input":14,"output":15,"interpolation":"LINEAR"}],"channels":[{"sampler":0,"target":{"node":3,"path":"rotation"}},{"sampler":1,"target":{"node":3,"path":"translation"}}]}]}